<svg width="48" height="36" viewBox="0 0 48 36" fill="none" xmlns="http://www.w3.org/2000/svg">
<path fill-rule="evenodd" clip-rule="evenodd" d="M33.742 2.624C33.178 1.096 31.722 0 30 0C27.404 0 25.374 2.488 26.192 5.164C26.8466 4.93126 27.5227 4.64419 28.224 4.34646L28.224 4.34645C29.903 3.63358 31.726 2.8596 33.742 2.624ZM26 20C26 18.896 25.106 18 24 18C22.894 18 22 18.896 22 20C22 21.104 22.894 22 24 22C25.106 22 26 21.104 26 20ZM36.636 29.746C39.562 29.124 41.578 26.766 40.928 23.292C43.726 26.326 40.618 31.19 36.636 29.746ZM8.634 29.746C11.56 29.124 13.576 26.766 12.926 23.292C15.724 26.326 12.614 31.19 8.634 29.746ZM14.258 2.624C14.822 1.096 16.278 0 18 0C20.596 0 22.626 2.488 21.808 5.164C21.1536 4.93133 20.4776 4.64452 19.7766 4.34708C18.0974 3.6346 16.2743 2.86104 14.258 2.624ZM20.268 10.988C22.684 11.78 25.302 11.784 27.73 10.988C29.1205 10.5339 30.2685 10.0405 31.2399 9.623C33.9224 8.47015 35.2582 7.89602 36.634 10.326C36.875 10.7507 37.2194 11.3559 37.6004 12.0251C38.4589 13.5334 39.5027 15.367 39.964 16.194C34.256 15.044 28.82 19.026 28.084 24.702C25.618 23.462 22.496 23.408 19.916 24.702C19.178 19.024 13.744 15.044 8.034 16.194C8.51889 15.3296 9.24728 14.0503 9.96129 12.7962L9.96167 12.7955L9.96216 12.7947L9.96258 12.7939L9.96291 12.7933L9.96385 12.7917C10.4682 11.9059 10.9652 11.0329 11.364 10.328C12.7391 7.89654 14.0733 8.46961 16.76 9.62372C17.7309 10.0407 18.8783 10.5336 20.268 10.988ZM28.8281 6.26628C30.6759 5.48487 32.6785 4.638 34.61 4.638C36.606 4.638 38.524 5.542 40.118 8.358C40.6428 9.28594 41.1469 10.1705 41.6286 11.0157L41.6295 11.0173L41.6296 11.0174C45.5636 17.9206 48 22.196 48 26C48 31.522 43.524 36 38 36C33.6077 36 31.5345 33.5621 29.6426 31.3374C28.0551 29.4706 26.5952 27.754 24 27.754C21.4048 27.754 19.9449 29.4706 18.3574 31.3374C16.4655 33.5621 14.3923 36 10 36C4.476 36 0 31.522 0 26C0 22.1969 2.43533 17.9226 6.36772 11.0208L6.36775 11.0207L6.36784 11.0206C6.85058 10.1733 7.35588 9.28645 7.882 8.356C9.474 5.542 11.394 4.638 13.39 4.638C15.3225 4.638 17.3272 5.48579 19.1758 6.26755C19.9922 6.61282 20.7781 6.94521 21.514 7.186C23.116 7.712 24.862 7.718 26.486 7.186C27.2234 6.94491 28.0106 6.61201 28.8281 6.26628ZM38 32C34.692 32 32 29.308 32 26C32 22.692 34.692 20 38 20C41.308 20 44 22.692 44 26C44 29.308 41.308 32 38 32ZM4 26C4 29.308 6.692 32 10 32C13.308 32 16 29.308 16 26C16 22.692 13.308 20 10 20C6.692 20 4 22.692 4 26Z" fill="#333333"/>
</svg>
