<svg width="48" height="48" viewBox="0 0 48 48" fill="none" xmlns="http://www.w3.org/2000/svg">
<path fill-rule="evenodd" clip-rule="evenodd" d="M45.468 0C46.262 0 47.07 0.028 47.896 0.084C47.966 1.004 48 1.904 48 2.784C48 19.8 35.222 29.232 24.366 33.12L14.912 23.666C18.474 13.114 28.268 0 45.468 0ZM19.576 22.674L25.342 28.44C35.892 23.898 43.472 15.584 43.974 4.034C28.958 4.784 22.018 16.956 19.576 22.674ZM36.284 31.516C35.19 32.262 34.104 32.936 33.028 33.538C32.654 35.32 31.704 37.222 30.326 38.842C30.322 37.69 30.002 36.53 29.44 35.366C28.45 35.816 27.508 36.202 26.612 36.542C27.932 39.96 26.588 42.484 24.782 44.85C27.374 44.654 30.094 43.386 32.238 41.24C34.548 38.93 36.172 35.594 36.284 31.516ZM9.18 17.696C10.328 17.702 11.486 18.018 12.644 18.578C12.216 19.526 11.83 20.472 11.484 21.414C8.066 20.09 5.542 21.434 3.174 23.242C3.37 20.652 4.64 17.928 6.782 15.786C9.094 13.474 12.432 11.85 16.51 11.74C15.766 12.812 15.06 13.902 14.432 15.006C12.668 15.39 10.786 16.334 9.18 17.696ZM28.12 19.904C27.338 19.122 27.338 17.858 28.12 17.076C28.902 16.294 30.166 16.294 30.948 17.076C31.73 17.86 31.73 19.124 30.948 19.906C30.166 20.688 28.9 20.686 28.12 19.904ZM32.362 10.002C33.924 8.442 36.458 8.442 38.018 10.002C39.58 11.566 39.58 14.1 38.02 15.66C36.458 17.222 33.924 17.222 32.362 15.66C30.8 14.1 30.8 11.564 32.362 10.002ZM34.202 13.824C33.656 13.278 33.656 12.388 34.202 11.844C34.744 11.298 35.636 11.298 36.182 11.844C36.726 12.388 36.724 13.278 36.182 13.824C35.634 14.368 34.746 14.368 34.202 13.824ZM0 48C9.102 47.54 17.724 42.744 20.708 35.124L19.116 33.528C13.668 41.768 8.096 42.426 5.56 42.456C5.584 39.998 6.228 34.816 14.89 29.306L13.28 27.694C5.314 30.648 0.438 39.422 0 48Z" fill="#DDDDDD"/>
</svg>
