<svg width="48" height="32" viewBox="0 0 48 32" fill="none" xmlns="http://www.w3.org/2000/svg">
<path fill-rule="evenodd" clip-rule="evenodd" d="M25.308 0C27.094 0 28.792 0.784 29.95 2.142L42 15.99H36.524L22.704 0H25.308ZM24.888 12.096L34 16.028L29.906 11.218L25.984 9.504C25.572 9.326 25.202 9.118 24.862 8.826L24.174 8.232L20.88 8L20.232 9.498L22.69 11.662L23.594 11.756C24.038 11.804 24.476 11.918 24.888 12.096ZM31.364 6.054C31.166 6.22 30.874 6.198 30.706 6L28.61 3.534C28.442 3.338 28.466 3.044 28.662 2.876C28.858 2.71 29.152 2.734 29.318 2.93L31.416 5.396C31.582 5.594 31.558 5.888 31.364 6.054ZM10.43 15.99L6 15.992L10.33 9.362C10.65 8.872 10.742 8.266 10.578 7.704C10.268 6.64 10.408 5.452 11.062 4.452C11.914 3.15 13.406 2.52 14.854 2.704L12.916 5.664C13.058 6.63 14.846 7.798 15.79 7.542L17.728 4.582C18.476 5.832 18.496 7.452 17.644 8.754C16.988 9.756 15.956 10.358 14.858 10.502C14.276 10.576 13.756 10.902 13.436 11.392L10.43 15.99ZM42 24C43.104 24 44 24.898 44 26C44 27.102 43.104 28 42 28H6C4.896 28 4 27.102 4 26C4 24.898 4.896 24 6 24H42ZM6 20H42C45.314 20 48 22.686 48 26C48 29.314 45.314 32 42 32H6C2.686 32 0 29.314 0 26C0 22.686 2.686 20 6 20Z" fill="#DDDDDD"/>
</svg>
